{"title":"Kong Skull Island (2017) HDRip XviD-MAX","magnet":"magnet:?xt=urn:btih:1b0f4ce2a6a2dca1dd6d0b15f3d9acf288b0d36e&dn=Kong+Skull+Island+%282017%29+HDRip+XviD-MAX&tr=udp%3A%2F%2Ftracker.leechers-paradise.org%3A6969&tr=udp%3A%2F%2Fzer0day.ch%3A1337&tr=udp%3A%2F%2Fopen.demonii.com%3A1337&tr=udp%3A%2F%2Ftracker.coppersurfer.tk%3A6969&tr=udp%3A%2F%2Fexodus.desync.com%3A6969","uploader":"extremezone","categoryP":"video","categoryS":"movies","size":"1999412665","seeders":"6","leechers":"78","description":" <a href=\"http://i.imgur.com/mSy14TL.jpg\" rel=\"nofollow\" target=\"_NEW\">http://i.imgur.com/mSy14TL.jpg</a>\r\n\r\nScreenCaps:\r\n <a href=\"\nhttp://i.imgur.com/guydFTZ.jpg\" rel=\"nofollow\" target=\"_NEW\">\nhttp://i.imgur.com/guydFTZ.jpg</a>\r\n\r\nKong Skull Island (2017) HDRip XviD-MAX\r\nFormat                                   : AVI\r\nFormat/Info                              : Audio Video Interleave\r\nFormat profile                           : OpenDML\r\nFormat settings                          : rec\r\nFile size                                : 1.86 GiB\r\nDuration                                 : 1h 58mn\r\nOverall bit rate                         : 2 245 Kbps\r\nWriting application                      : VirtualDubMod 1.5.10.2 (build 2542/release)\r\nWriting library                          : VirtualDubMod build 2542/release\r\nOriginal source form                     : MAX TORRENTZ\r\nCopyright                                : SIGISMUNT\r\n\r\nVideo\r\nID                                       : 0\r\nFormat                                   : MPEG-4 Visual\r\nFormat profile                           : Advanced <a class=\"__cf_email__\" href=\"/cdn-cgi/l/email-protection\" data-cfemail=\"8ddee4e0fde1e8cdc1b8\">[email&#xA0;protected]</a><script data-cfhash=\"f9e31\" type=\"text/javascript\">/* <![CDATA[ */!function(t,e,r,n,c,a,p){try{t=document.currentScript||function(){for(t=document.getElementsByTagName('script'),e=t.length;e--;)if(t[e].getAttribute('data-cfhash'))return t[e]}();if(t&&(c=t.previousSibling)){p=t.parentNode;if(a=c.getAttribute('data-cfemail')){for(e='',r='0x'+a.substr(0,2)|0,n=2;a.length-n;n+=2)e+='%'+('0'+('0x'+a.substr(n,2)^r).toString(16)).slice(-2);p.replaceChild(document.createTextNode(decodeURIComponent(e)),c)}p.removeChild(t)}}catch(u){}}()/* ]]> */</script>\r\nFormat settings, BVOP                    : 2\r\nFormat settings, QPel                    : No\r\nFormat settings, GMC                     : No warppoints\r\nFormat settings, Matrix                  : Default (H.263)\r\nMuxing mode                              : Packed bitstream\r\nCodec ID                                 : XVID\r\nCodec ID/Hint                            : XviD\r\nDuration                                 : 1h 58mn\r\nBit rate                                 : 1 992 Kbps\r\nWidth                                    : 720 pixels\r\nHeight                                   : 304 pixels\r\nDisplay aspect ratio                     : 2.35:1\r\nFrame rate                               : 23.976 fps\r\nColor space                              : YUV\r\nChroma subsampling                       : 4:2:0\r\nBit depth                                : 8 bits\r\nScan type                                : Progressive\r\nCompression mode                         : Lossy\r\nBits/(Pixel*Frame)                       : 0.317\r\nStream size                              : 1.53 GiB (84%)\r\nWriting library                          : XviD 65\r\n\r\nAudio\r\nID                                       : 1\r\nFormat                                   : AC-3\r\nFormat/Info                              : Audio Coding 3\r\nMode extension                           : CM (complete main)\r\nFormat settings, Endianness              : Big\r\nCodec ID                                 : 2000\r\nDuration                                 : 1h 58mn\r\nBit rate mode                            : Constant\r\nBit rate                                 : 384 Kbps\r\nChannel(s)                               : 6 channels\r\nChannel positions                        : Front: L C R, Side: L R, LFE\r\nSampling rate                            : 48.0 KHz\r\nBit depth                                : 16 bits\r\nCompression mode                         : Lossy\r\nStream size                              : 335 MiB (16%)\r\nAlignment                                : Aligned on interleaves\r\nInterleave, duration                     : 64 ms (1.53 video frames)\r\nInterleave, preload duration             : 192 ms\r\n\r\nSource: WEBDL HD (clean encode/source, perfect a/v/sync quality,sample included)\r\nThis torrent is not seedbox supported,please seed it to the MAX","last_updated":"2017-06-21T12:01:11.898Z","parsed":{"xt":"urn:btih:1b0f4ce2a6a2dca1dd6d0b15f3d9acf288b0d36e","dn":"Kong Skull Island (2017) HDRip XviD-MAX","tr":["udp://exodus.desync.com:6969","udp://open.demonii.com:1337","udp://tracker.coppersurfer.tk:6969","udp://tracker.leechers-paradise.org:6969","udp://zer0day.ch:1337"],"infoHash":"1b0f4ce2a6a2dca1dd6d0b15f3d9acf288b0d36e","infoHashBuffer":{"type":"Buffer","data":[27,15,76,226,166,162,220,161,221,109,11,21,243,217,172,242,136,176,211,110]},"name":"Kong Skull Island (2017) HDRip XviD-MAX","announce":["udp://exodus.desync.com:6969","udp://open.demonii.com:1337","udp://tracker.coppersurfer.tk:6969","udp://tracker.leechers-paradise.org:6969","udp://zer0day.ch:1337"],"urlList":[]}}